<svg xmlns="http://www.w3.org/2000/svg" width="2560" height="1440" viewBox="0 0 2560 1440" role="img" aria-labelledby="title desc">
<title id="title">AIRA Systems light wallpaper</title><desc id="desc">High-resolution white and silver AIRA Systems branded wallpaper.</desc>
<defs>
  <linearGradient id="bg" x1="0" y1="0" x2="1" y2="1"><stop offset="0" stop-color="#ffffff"/><stop offset=".52" stop-color="#f7f9fc"/><stop offset="1" stop-color="#e8edf5"/></linearGradient>
  <linearGradient id="silver" x1="0" y1="0" x2="1" y2="1"><stop offset="0" stop-color="#f9fbfe"/><stop offset=".55" stop-color="#dfe6ef"/><stop offset="1" stop-color="#b9c7da"/></linearGradient>
  <linearGradient id="edge" x1="0" y1="0" x2="1" y2="0"><stop offset="0" stop-color="#9ccfff" stop-opacity="0"/><stop offset=".5" stop-color="#52aaf3" stop-opacity=".9"/><stop offset="1" stop-color="#9ccfff" stop-opacity="0"/></linearGradient>
  <filter id="shadow"><feDropShadow dx="0" dy="16" stdDeviation="28" flood-color="#6b7c91" flood-opacity=".13"/></filter>
</defs>
<rect width="2560" height="1440" fill="url(#bg)"/>
<path d="M-120 760 C380 590 560 1010 1040 1080 C1550 1150 1860 830 2680 870 L2680 1440 L-120 1440 Z" fill="url(#silver)" opacity=".92"/>
<path d="M-150 1020 C460 790 780 1260 1340 1240 C1830 1220 2150 1010 2700 1030" fill="none" stroke="url(#edge)" stroke-width="6"/>
<path d="M1820 -80 C2110 220 2250 490 2630 600" fill="none" stroke="#c7d1df" stroke-width="2" opacity=".65"/>
<g opacity=".22" fill="#8797aa"> <circle cx="2200" cy="180" r="4"/><circle cx="2240" cy="180" r="4"/><circle cx="2280" cy="180" r="4"/><circle cx="2320" cy="180" r="4"/><circle cx="2200" cy="220" r="4"/><circle cx="2240" cy="220" r="4"/><circle cx="2280" cy="220" r="4"/><circle cx="2320" cy="220" r="4"/></g>
<g transform="translate(930 285)" text-anchor="middle" filter="url(#shadow)">
  <g transform="translate(350 0)" fill="none" stroke="#172c4e" stroke-width="28" stroke-linecap="round" stroke-linejoin="round">
    <path d="M0 0 L-190 315 L0 420 L190 315 Z"/>
    <circle cx="0" cy="0" r="34" fill="#172c4e" stroke="none"/><circle cx="-190" cy="315" r="34" fill="#172c4e" stroke="none"/><circle cx="190" cy="315" r="34" fill="#172c4e" stroke="none"/>
    <circle cx="0" cy="122" r="36" fill="#172c4e" stroke="none"/><path d="M-80 205 Q-55 174 -18 174 H18 Q55 174 80 205 L65 350 L0 390 L-65 350 Z" fill="#172c4e" stroke="none"/>
  </g>
  <text x="350" y="620" fill="#172c4e" font-family="Arial Black, Helvetica Neue, Arial, sans-serif" font-size="190" font-weight="900" letter-spacing="8">AIRA</text>
  <text x="350" y="748" fill="#6e7074" font-family="Helvetica Neue, Arial, sans-serif" font-size="76" font-weight="500" letter-spacing="33">SYSTEMS</text>
  <text x="350" y="845" fill="#172c4e" font-family="Segoe Script, Brush Script MT, cursive" font-size="62" font-style="italic">Intelligence You Can Trust.</text>
</g>
</svg>